<svg xmlns="http://www.w3.org/2000/svg" width="13.781" height="16.33" viewBox="0 0 13.781 16.33"><defs><style>.a{fill:#aaa;}</style></defs><path class="a" d="M139.549,46.138v-6.9H129.233v6.9Zm-7.817-10.326v1.733h5.319V35.812a2.66,2.66,0,1,0-5.319,0Zm7.817,1.733a1.738,1.738,0,0,1,1.733,1.692v6.9a1.738,1.738,0,0,1-1.733,1.692H129.233a1.738,1.738,0,0,1-1.733-1.692v-6.9a1.738,1.738,0,0,1,1.733-1.692h.846V35.812a4.312,4.312,0,1,1,8.623,0v1.733Zm-5.158,6.876a1.733,1.733,0,1,1,1.733-1.733A1.773,1.773,0,0,1,134.391,44.42Z" transform="translate(-127.5 -31.5)"/></svg>