<svg xmlns="http://www.w3.org/2000/svg" width="16" height="16" viewBox="0 0 16 16"><defs><style>.a{fill:#aaa;}</style></defs><path class="a" d="M135.5,136.482c2.667,0,8,1.357,8,4.023V143.5h-16v-2.994C127.5,137.839,132.833,136.482,135.5,136.482Zm0-8.982a4.013,4.013,0,0,1,3.977,4.023,3.977,3.977,0,0,1-7.953,0A4.013,4.013,0,0,1,135.5,127.5Zm0,10.9c-2.947,0-6.082,1.45-6.082,2.105v1.076h12.164v-1.076C141.582,139.851,138.447,138.4,135.5,138.4Zm0-8.982a2.1,2.1,0,0,0-2.105,2.105,2.106,2.106,0,0,0,4.211,0A2.1,2.1,0,0,0,135.5,129.418Z" transform="translate(-127.5 -127.5)"/></svg>